<svg width="594" height="198" viewBox="0 0 594 198" fill="none" xmlns="http://www.w3.org/2000/svg">
<path d="M39.0325 197.007C34.2747 197.007 29.927 195.899 25.9895 193.685C22.052 191.552 18.6887 188.599 15.8997 184.825C13.4387 181.462 11.2239 177.073 9.25513 171.659C7.28638 166.163 5.68676 160.421 4.4563 154.433C3.3899 149.265 2.52856 143.153 1.87231 136.099C1.21606 128.962 0.805926 122.071 0.641846 115.427C0.395749 109.521 0.272705 102.876 0.272705 95.4932C0.272705 89.3408 0.313725 84.0088 0.395859 79.4971C0.477992 74.9854 0.519119 70.2686 0.519119 65.3467C0.519119 55.9951 1.09325 48.2432 2.24167 42.0908C1.7495 39.3838 1.50349 36.7588 1.50349 34.2158C1.50349 27.4893 3.22616 21.583 6.67146 16.4971C10.1988 11.3291 14.9976 7.35059 21.0679 4.56152C27.2203 1.77246 34.0698 0.37793 41.6167 0.37793C44.3237 0.37793 47.0308 0.911133 49.7379 1.97754C52.5269 3.04394 54.7828 4.52051 56.5054 6.40723C58.3101 8.21192 59.2125 10.3037 59.2125 12.6826C59.2125 14.4053 58.5152 15.7998 57.1207 16.8662C55.8082 17.8506 54.1676 18.3428 52.1988 18.3428C50.4762 18.3428 48.6715 18.0557 46.7847 17.4814C44.898 16.9072 43.7086 16.1689 43.2164 15.2666V15.3897H39.7711V14.7744C33.4547 14.7744 28.2866 16.1279 24.2671 18.835C22.7085 19.9834 21.314 21.542 20.0836 23.5108C18.8531 25.4795 17.8687 27.5303 17.1304 29.6631C16.5562 31.3858 16.064 33.7236 15.6539 36.6768C15.3257 39.6299 15.1206 42.2549 15.0385 44.5518C14.9566 45.9463 14.9157 48.6533 14.9157 52.6729C14.9157 54.6416 15.0388 57.5537 15.2849 61.4092C15.5309 65.1826 15.654 68.0537 15.654 70.0225C15.654 71.9912 15.2849 74.9033 14.5466 78.7588C13.8083 82.6963 13.4391 85.6494 13.4391 87.6182V93.6475C13.4391 102.179 13.6442 111.161 14.0544 120.595C14.2184 125.927 14.5465 130.685 15.0388 134.868C15.613 139.052 16.3923 143.892 17.3766 149.388C18.279 154.146 19.3864 158.288 20.6989 161.815C22.0935 165.343 23.8571 168.788 25.9899 172.151C29.9274 178.386 35.3825 181.503 42.3552 181.503C45.2263 181.503 48.7946 179.985 53.0602 176.95C57.4079 173.997 60.5661 172.521 62.5349 172.521C64.9138 172.521 67.3747 173.792 69.9177 176.335C69.9177 179.37 69.2614 182.118 67.9489 184.579C66.7185 187.04 65.0368 189.05 62.904 190.608C60.8532 192.085 58.4333 193.315 55.6442 194.3C52.8551 195.284 50.0661 195.981 47.277 196.392C44.2419 196.802 41.4934 197.007 39.0325 197.007Z" fill="#0D4C88"/>
<path d="M119.259 197.622C114.747 197.622 110.646 196.269 106.954 193.562C103.263 190.854 100.31 187.081 98.095 182.241C93.3372 172.315 90.261 161.159 88.8665 148.772C87.4719 137.288 86.7747 126.337 86.7747 115.919C86.7747 113.868 86.8156 112.187 86.8975 110.874C86.9796 109.562 87.0208 108.044 87.0208 106.321C87.0208 105.501 86.8977 105.091 86.6516 105.091V100.538C86.6516 99.2256 86.7336 95.6162 86.8976 89.71C86.8976 87.085 86.9387 84.8291 87.0209 82.9424C87.103 78.4307 87.267 74.4111 87.513 70.8838C87.8412 67.3564 88.3334 62.7627 88.9896 57.1025C89.4818 52.5088 90.1791 48.4482 91.0814 44.9209C91.9838 41.3115 93.1732 37.5791 94.6498 33.7236C95.8802 30.3603 97.4388 27.8174 99.3255 26.0947C101.212 24.29 103.304 23.3877 105.601 23.3877C112.327 23.3877 118.398 24.6182 123.812 27.0791C129.226 29.54 133.738 32.9443 137.347 37.292C140.71 41.4756 143.54 46.6025 145.837 52.6729C148.216 58.7432 149.898 65.3057 150.882 72.3604C151.866 79.251 152.359 86.7158 152.359 94.7549V96.6006L152.605 110.874L152.851 125.147C152.851 173.464 141.654 197.622 119.259 197.622ZM118.275 187.163C121.228 187.163 123.935 185.974 126.396 183.595C128.939 181.134 130.948 177.771 132.425 173.505C135.378 165.056 137.306 155.868 138.208 145.942C138.947 137.083 139.316 129.618 139.316 123.548C139.316 116.411 138.782 106.567 137.716 94.0166C136.568 80.4814 135.993 70.7607 135.993 64.8545V60.4248C135.829 56.3232 134.845 52.4678 133.04 48.8584C131.236 45.167 128.775 42.2549 125.657 40.1221C122.54 37.9072 119.054 36.7998 115.198 36.7998C109.456 36.7998 105.642 40.04 103.755 46.5205C102.853 49.5557 102.238 52.6318 101.909 55.749C101.581 58.7842 101.417 62.3936 101.417 66.5771C101.417 69.7764 101.458 72.4834 101.54 74.6982C101.622 76.9131 101.663 79.1689 101.663 81.4658C101.663 83.5166 101.458 87.4131 101.048 93.1553C100.638 98.8975 100.433 102.753 100.433 104.722C100.433 110.792 100.761 119.774 101.417 131.669C102.073 144.302 103.714 156.565 106.339 168.46C107.57 174.284 109.21 178.878 111.261 182.241C113.394 185.522 115.732 187.163 118.275 187.163Z" fill="#2B639B"/>
<path d="M199.486 194.669C196.861 194.669 194.851 193.438 193.456 190.978C192.062 188.435 191.364 185.44 191.364 181.995C191.364 178.14 191.693 171.413 192.349 161.815C193.005 152.218 193.333 145.532 193.333 141.759C193.333 133.72 192.759 120.636 191.611 102.507C190.462 84.3779 189.888 71.2939 189.888 63.2549L190.134 53.6572C190.216 50.2939 190.257 46.1514 190.257 41.2295C190.257 29.0068 189.478 21.1729 187.919 17.7275L181.397 18.4658C177.952 18.876 175.573 19.0811 174.261 19.0811C172.046 19.0811 170.118 18.4248 168.478 17.1123C166.837 15.7998 166.017 14.1592 166.017 12.1904C166.017 10.2217 168.026 8.49902 172.046 7.02246C178.116 4.88965 188.042 3.41309 201.823 2.59277C206.171 2.34668 209.657 2.22363 212.282 2.22363C214.415 2.22363 216.302 2.9209 217.942 4.31543C219.583 5.70996 220.403 7.3916 220.403 9.36035C220.403 11.3291 219.665 12.9287 218.188 14.1592C216.794 15.3896 214.989 16.0049 212.774 16.0049L208.222 15.7588L203.792 15.5127C202.479 15.5127 201.618 15.5537 201.208 15.6358C202.356 25.7256 202.931 36.0616 202.931 46.6436L202.685 62.7627L202.439 79.128C202.439 85.6905 202.808 95.3291 203.546 108.044C204.284 120.677 204.653 130.356 204.653 137.083C204.653 142.169 205.023 149.716 205.761 159.724C206.417 170.388 206.745 177.935 206.745 182.364C206.745 190.567 204.325 194.669 199.486 194.669Z" fill="#4879AD"/>
<path d="M296.323 195.284C292.55 195.284 289.72 194.669 287.833 193.438C286.029 192.208 285.126 190.034 285.126 186.917C285.126 181.585 284.224 173.013 282.419 161.2L281.435 155.786L256.579 152.095C255.185 156.935 253.79 164.728 252.396 175.474C251.329 183.759 249.73 189.214 247.597 191.839C246.202 193.479 244.48 194.3 242.429 194.3C240.378 194.3 238.532 193.644 236.892 192.331C235.251 191.019 234.431 189.419 234.431 187.532C234.431 187.286 234.554 186.876 234.8 186.302L235.046 185.317C246.284 141.923 254.693 99.3486 260.271 57.5947C260.599 53.9854 260.886 50.5811 261.132 47.3818C261.542 41.1475 262.075 36.1846 262.732 32.4932C263.388 28.7197 264.372 25.8896 265.685 24.0029H274.175C276.636 24.0029 278.687 24.5771 280.327 25.7256C281.968 26.792 282.788 28.3506 282.788 30.4014C282.788 43.1162 284.511 62.1064 287.956 87.3721C291.32 112.884 293.001 131.013 293.001 141.759C293.001 143.153 293.452 145.737 294.355 149.511C295.257 153.284 295.708 155.868 295.708 157.263C295.708 159.067 296.529 164.071 298.169 172.274C299.728 180.067 300.507 185.276 300.507 187.901V188.147C300.507 191.839 299.113 194.218 296.323 195.284ZM279.835 146.804C279.343 144.343 279.097 141.226 279.097 137.452C279.097 129.495 278.769 121.169 278.113 112.474C277.456 103.696 276.431 92.7041 275.036 79.4971C273.888 69.5713 272.986 60.876 272.329 53.4111C264.7 95.5752 259.779 125.353 257.564 142.743C260.353 144.548 267.777 145.901 279.835 146.804Z" fill="#6690C0"/>
<path d="M326.593 196.392C323.476 195.899 320.892 194.792 318.841 193.069C316.79 191.429 315.601 189.296 315.273 186.671L318.103 182.364C320.564 182.856 322.122 183.185 322.779 183.349C325.075 183.923 327.003 184.21 328.562 184.21C331.679 184.21 334.427 182.856 336.806 180.149C339.185 177.442 340.99 173.915 342.22 169.567C344.435 161.61 345.542 154.351 345.542 147.788C345.542 142.21 344.558 136.427 342.589 130.438C340.702 124.368 338.159 118.503 334.96 112.843L332.622 108.782C329.177 102.876 326.347 97.749 324.132 93.4014C321.917 88.9717 320.031 84.2139 318.472 79.1279C316.421 72.7295 315.396 66.126 315.396 59.3174C315.396 51.6885 317.118 44.0186 320.564 36.3076C322.286 32.2881 324.665 29.0889 327.7 26.71C330.818 24.249 334.304 23.0186 338.159 23.0186C341.277 23.0186 344.107 24.0029 346.65 25.9717C349.275 27.8584 350.587 30.1963 350.587 32.9854C350.587 34.4619 349.972 35.6514 348.741 36.5537C347.511 37.374 346.075 37.7842 344.435 37.7842C342.63 37.7842 340.866 37.292 339.144 36.3076C337.257 36.3897 335.534 37.333 333.976 39.1377C332.417 40.9424 331.187 43.2803 330.284 46.1514C328.562 51.6475 327.7 56.4873 327.7 60.6709C327.7 65.5107 328.398 70.4326 329.792 75.4365C331.269 80.4404 333.197 84.9521 335.575 88.9717C341.728 99.8818 346.568 108.782 350.095 115.673C352.392 120.267 354.238 125.681 355.632 131.915C357.109 138.149 357.847 144.466 357.847 150.864C357.847 161.036 355.509 170.757 350.833 180.026C348.454 184.784 345.132 188.599 340.866 191.47C336.601 194.259 331.843 195.694 326.593 195.776V196.392Z" fill="#83A7D3"/>
<path d="M443.98 197.253C440.124 197.253 436.023 193.069 431.675 184.702C427.902 177.237 424.374 167.886 421.093 156.647C417.812 145.409 414.9 134.007 412.357 122.44C410.47 114.237 408.952 106.896 407.804 100.415C401.734 112.556 398.698 127.157 398.698 144.22V190.854C398.698 194.792 396.976 196.761 393.531 196.761C390.988 196.761 388.937 196.022 387.378 194.546C385.902 193.151 385.163 191.224 385.163 188.763V112.228C385.163 103.532 385.984 89.915 387.624 71.376C389.183 53.7393 389.962 40.2041 389.962 30.7705C391.439 27.5713 393.941 25.9717 397.468 25.9717C399.601 25.9717 401.406 26.751 402.882 28.3096C404.441 29.7861 405.22 31.5908 405.22 33.7236V34.4619C403.005 38.2354 401.898 53.5342 401.898 80.3584V89.3408L411.126 70.8838C417.032 58.9072 422.447 48.6943 427.368 40.2451C432.29 31.7959 435.736 27.5713 437.704 27.5713C440.329 27.5713 442.585 28.1865 444.472 29.417C446.441 30.5654 447.425 32.2061 447.425 34.3389C447.425 34.585 445.415 37.9482 441.396 44.4287C428.681 65.4287 421.667 77.2412 420.355 79.8662L420.109 87.3721L419.863 94.8779C419.863 99.4717 421.216 107.388 423.923 118.626C426.712 129.782 429.952 140.897 433.644 151.972C437.417 162.964 440.534 170.511 442.995 174.612L446.318 179.165C448.04 181.544 449.271 183.595 450.009 185.317C450.747 186.958 451.116 188.722 451.116 190.608C451.116 192.495 450.419 194.054 449.025 195.284C447.63 196.597 445.948 197.253 443.98 197.253Z" fill="#93B5DD"/>
<path d="M484.339 196.269C482.042 196.269 479.991 195.489 478.187 193.931C476.464 192.454 475.562 190.649 475.48 188.517V181.872C475.48 180.067 475.439 178.386 475.357 176.827L475.111 171.536C475.111 168.829 474.906 163.456 474.496 155.417C474.085 147.46 473.88 142.087 473.88 139.298C473.88 130.028 474.167 117.765 474.742 102.507C475.316 87.249 475.603 74.9854 475.603 65.7158C475.603 63.9111 475.398 60.3428 474.988 55.0107C474.496 50.335 474.25 46.8076 474.25 44.4287C474.25 32.5342 477.777 26.5869 484.832 26.5869C488.031 26.5869 492.05 27.1201 496.89 28.1865C501.812 29.1709 506.037 30.5244 509.564 32.2471C513.173 33.8877 514.978 35.7334 514.978 37.7842C514.978 39.5068 514.281 41.0654 512.886 42.46C511.492 43.7725 509.728 44.8389 507.595 45.6592C499.884 43.1162 493.527 41.5166 488.523 40.8604C488.769 44.3877 488.892 47.9971 488.892 51.6885C488.892 56.6104 488.728 62.6396 488.4 69.7764C487.99 78.6357 487.785 84.665 487.785 87.8643L488.523 91.8018L492.583 91.5557C493.978 91.4736 495.619 91.4326 497.505 91.4326C505.626 91.4326 509.687 93.7295 509.687 98.3232C509.687 100.128 508.908 101.728 507.349 103.122C505.873 104.435 503.986 105.091 501.689 105.091C499.228 105.091 496.849 104.927 494.552 104.599H488.154C488.646 110.997 488.892 117.354 488.892 123.671C488.892 129.741 488.728 137.329 488.4 146.435C487.99 157.755 487.785 165.384 487.785 169.321C487.785 178.755 487.949 183.472 488.277 183.472L496.521 183.103L506.857 182.856C513.255 182.856 516.455 184.907 516.455 189.009C516.455 191.388 515.388 193.192 513.255 194.423C511.205 195.653 508.662 196.269 505.626 196.269H484.339Z" fill="#A2C3E7"/>
<path d="M588.068 197.253C584.54 197.253 581.177 193.192 577.978 185.071C574.778 177.278 572.153 168.337 570.103 158.247L568.38 149.757C563.704 125.886 560.628 112.146 559.152 108.536H556.075C556.075 113.458 556.034 117.929 555.952 121.948C555.87 125.968 555.829 130.603 555.829 135.853C555.829 158.083 557.429 175.597 560.628 188.394L557.798 195.161H550.784L547.462 191.47L547.708 174.612C547.708 160.421 547.011 137.493 545.616 105.829C544.139 75.0674 543.401 52.0986 543.401 36.9229C543.401 28.9658 546.19 24.9873 551.769 24.9873C557.675 24.9873 562.966 26.0537 567.641 28.1865C572.399 30.2373 576.132 33.2725 578.839 37.292C581.546 41.2295 582.899 45.9873 582.899 51.5654V69.2842C582.899 71.6631 582.448 74.4521 581.546 77.6514C580.644 80.8506 579.7 83.5986 578.716 85.8955L573.917 95.001L569.979 102.384L574.778 126.378C577.075 138.929 579.331 149.306 581.546 157.509C583.761 165.63 586.427 173.054 589.544 179.78L591.144 182.979C592.046 184.702 592.702 186.179 593.112 187.409C593.522 188.558 593.728 189.706 593.728 190.854C593.728 192.659 593.194 194.177 592.128 195.407C591.061 196.638 589.708 197.253 588.068 197.253ZM557.183 96.1084C559.644 94.7959 561.859 91.9248 563.827 87.4951C565.878 83.0654 567.478 78.1025 568.626 72.6064C569.775 67.0283 570.349 62.1064 570.349 57.8408C570.349 54.7236 570.226 52.0986 569.98 49.9658C569.734 47.751 569.241 45.3311 568.503 42.7061C567.683 40.0811 566.288 38.0713 564.32 36.6768C562.433 35.2002 560.013 34.4209 557.06 34.3389L556.691 35.8154C556.362 36.7178 556.198 37.415 556.198 37.9072C556.198 46.2744 556.362 56.2002 556.691 67.6846C557.019 79.251 557.183 88.7256 557.183 96.1084Z" fill="#B1D1F1"/>
</svg>
